<mxfile host="app.diagrams.net" modified="2020-06-18T21:30:36.432Z" agent="5.0 (Macintosh; Intel Mac OS X 10_15_4) AppleWebKit/537.36 (KHTML, like Gecko) Chrome/83.0.4103.97 Safari/537.36" etag="DcK-4hi7sKZPLw1SAv1T" version="13.2.6" type="github">
  <diagram id="C5RBs43oDa-KdzZeNtuy" name="Page-1">
    <mxGraphModel dx="854" dy="721" grid="1" gridSize="10" guides="1" tooltips="1" connect="1" arrows="1" fold="1" page="1" pageScale="1" pageWidth="2339" pageHeight="3300" math="0" shadow="0">
      <root>
        <mxCell id="WIyWlLk6GJQsqaUBKTNV-0" />
        <mxCell id="WIyWlLk6GJQsqaUBKTNV-1" parent="WIyWlLk6GJQsqaUBKTNV-0" />
        <mxCell id="dJCcsN1a7NyHzebXsg9J-1" value="submitting a campaign from draft" style="rounded=0;whiteSpace=wrap;html=1;" parent="WIyWlLk6GJQsqaUBKTNV-1" vertex="1">
          <mxGeometry x="120" y="585" width="220" height="45" as="geometry" />
        </mxCell>
        <mxCell id="dJCcsN1a7NyHzebXsg9J-4" style="edgeStyle=orthogonalEdgeStyle;rounded=0;orthogonalLoop=1;jettySize=auto;html=1;exitX=0.5;exitY=1;exitDx=0;exitDy=0;entryX=0.5;entryY=0;entryDx=0;entryDy=0;" parent="WIyWlLk6GJQsqaUBKTNV-1" source="dJCcsN1a7NyHzebXsg9J-2" target="dJCcsN1a7NyHzebXsg9J-3" edge="1">
          <mxGeometry relative="1" as="geometry" />
        </mxCell>
        <mxCell id="dJCcsN1a7NyHzebXsg9J-2" value="draft campaign" style="rounded=1;whiteSpace=wrap;html=1;" parent="WIyWlLk6GJQsqaUBKTNV-1" vertex="1">
          <mxGeometry x="160" y="660" width="120" height="60" as="geometry" />
        </mxCell>
        <mxCell id="dJCcsN1a7NyHzebXsg9J-3" value="create a new live campaign and delete the draft campaign" style="rounded=1;whiteSpace=wrap;html=1;" parent="WIyWlLk6GJQsqaUBKTNV-1" vertex="1">
          <mxGeometry x="130" y="780" width="180" height="90" as="geometry" />
        </mxCell>
        <mxCell id="dJCcsN1a7NyHzebXsg9J-5" value="cloning of campaigns(accepts a campaign Id and creates new entities and returns a new campaign Id of Type &#39;DRAFT&#39;)" style="rounded=0;whiteSpace=wrap;html=1;" parent="WIyWlLk6GJQsqaUBKTNV-1" vertex="1">
          <mxGeometry x="420" y="530" width="350" height="100" as="geometry" />
        </mxCell>
        <mxCell id="dJCcsN1a7NyHzebXsg9J-9" style="edgeStyle=orthogonalEdgeStyle;rounded=0;orthogonalLoop=1;jettySize=auto;html=1;exitX=0.5;exitY=1;exitDx=0;exitDy=0;" parent="WIyWlLk6GJQsqaUBKTNV-1" source="dJCcsN1a7NyHzebXsg9J-6" target="dJCcsN1a7NyHzebXsg9J-8" edge="1">
          <mxGeometry relative="1" as="geometry" />
        </mxCell>
        <mxCell id="dJCcsN1a7NyHzebXsg9J-6" value="client call cloneToDraftCampaign" style="rounded=1;whiteSpace=wrap;html=1;" parent="WIyWlLk6GJQsqaUBKTNV-1" vertex="1">
          <mxGeometry x="510" y="650" width="195" height="80" as="geometry" />
        </mxCell>
        <mxCell id="dJCcsN1a7NyHzebXsg9J-11" style="edgeStyle=orthogonalEdgeStyle;rounded=0;orthogonalLoop=1;jettySize=auto;html=1;entryX=0.5;entryY=0;entryDx=0;entryDy=0;" parent="WIyWlLk6GJQsqaUBKTNV-1" source="dJCcsN1a7NyHzebXsg9J-8" target="dJCcsN1a7NyHzebXsg9J-10" edge="1">
          <mxGeometry relative="1" as="geometry" />
        </mxCell>
        <mxCell id="dJCcsN1a7NyHzebXsg9J-8" value="UCM call cloneEntities" style="rounded=1;whiteSpace=wrap;html=1;" parent="WIyWlLk6GJQsqaUBKTNV-1" vertex="1">
          <mxGeometry x="486.5" y="760" width="242" height="40" as="geometry" />
        </mxCell>
        <mxCell id="dJCcsN1a7NyHzebXsg9J-12" style="edgeStyle=orthogonalEdgeStyle;rounded=0;orthogonalLoop=1;jettySize=auto;html=1;entryX=1;entryY=0.5;entryDx=0;entryDy=0;exitX=1;exitY=0.5;exitDx=0;exitDy=0;" parent="WIyWlLk6GJQsqaUBKTNV-1" source="dJCcsN1a7NyHzebXsg9J-10" target="dJCcsN1a7NyHzebXsg9J-8" edge="1">
          <mxGeometry relative="1" as="geometry">
            <Array as="points">
              <mxPoint x="749" y="870" />
              <mxPoint x="749" y="780" />
            </Array>
          </mxGeometry>
        </mxCell>
        <mxCell id="dJCcsN1a7NyHzebXsg9J-14" style="edgeStyle=orthogonalEdgeStyle;rounded=0;orthogonalLoop=1;jettySize=auto;html=1;exitX=0.5;exitY=1;exitDx=0;exitDy=0;entryX=0.5;entryY=0;entryDx=0;entryDy=0;" parent="WIyWlLk6GJQsqaUBKTNV-1" source="dJCcsN1a7NyHzebXsg9J-10" target="dJCcsN1a7NyHzebXsg9J-13" edge="1">
          <mxGeometry relative="1" as="geometry" />
        </mxCell>
        <mxCell id="dJCcsN1a7NyHzebXsg9J-10" value="AxiomService load old Campaign and create new draft Campaign. Then reponse with new Campaign Id." style="rounded=1;whiteSpace=wrap;html=1;" parent="WIyWlLk6GJQsqaUBKTNV-1" vertex="1">
          <mxGeometry x="496.25" y="830" width="223.75" height="80" as="geometry" />
        </mxCell>
        <mxCell id="dJCcsN1a7NyHzebXsg9J-15" style="edgeStyle=orthogonalEdgeStyle;rounded=0;orthogonalLoop=1;jettySize=auto;html=1;entryX=0;entryY=0.5;entryDx=0;entryDy=0;" parent="WIyWlLk6GJQsqaUBKTNV-1" source="dJCcsN1a7NyHzebXsg9J-13" target="dJCcsN1a7NyHzebXsg9J-10" edge="1">
          <mxGeometry relative="1" as="geometry">
            <Array as="points">
              <mxPoint x="476" y="965" />
              <mxPoint x="476" y="870" />
            </Array>
          </mxGeometry>
        </mxCell>
        <mxCell id="dJCcsN1a7NyHzebXsg9J-13" value="AxiomAsyncWorker clone AdGroups, Ads, TCs. Then set AsyncStatus to SUCCEED or FAILED." style="rounded=1;whiteSpace=wrap;html=1;" parent="WIyWlLk6GJQsqaUBKTNV-1" vertex="1">
          <mxGeometry x="498.13" y="930" width="221.87" height="70" as="geometry" />
        </mxCell>
        <mxCell id="dJCcsN1a7NyHzebXsg9J-20" style="edgeStyle=orthogonalEdgeStyle;rounded=0;orthogonalLoop=1;jettySize=auto;html=1;entryX=0.5;entryY=0;entryDx=0;entryDy=0;" parent="WIyWlLk6GJQsqaUBKTNV-1" source="dJCcsN1a7NyHzebXsg9J-16" target="dJCcsN1a7NyHzebXsg9J-19" edge="1">
          <mxGeometry relative="1" as="geometry" />
        </mxCell>
        <mxCell id="dJCcsN1a7NyHzebXsg9J-16" value="(CloneEntitiesRequest) input" style="rounded=1;whiteSpace=wrap;html=1;" parent="WIyWlLk6GJQsqaUBKTNV-1" vertex="1">
          <mxGeometry x="975" y="577.5" width="230" height="82.5" as="geometry" />
        </mxCell>
        <mxCell id="dJCcsN1a7NyHzebXsg9J-18" style="edgeStyle=orthogonalEdgeStyle;rounded=0;orthogonalLoop=1;jettySize=auto;html=1;entryX=0.5;entryY=0;entryDx=0;entryDy=0;" parent="WIyWlLk6GJQsqaUBKTNV-1" source="dJCcsN1a7NyHzebXsg9J-17" target="dJCcsN1a7NyHzebXsg9J-16" edge="1">
          <mxGeometry relative="1" as="geometry" />
        </mxCell>
        <mxCell id="dJCcsN1a7NyHzebXsg9J-17" value="cloneEntitiesActivity specific implementation" style="rounded=0;whiteSpace=wrap;html=1;" parent="WIyWlLk6GJQsqaUBKTNV-1" vertex="1">
          <mxGeometry x="960" y="500" width="260" height="60" as="geometry" />
        </mxCell>
        <mxCell id="dJCcsN1a7NyHzebXsg9J-23" style="edgeStyle=orthogonalEdgeStyle;rounded=0;orthogonalLoop=1;jettySize=auto;html=1;entryX=0.5;entryY=0;entryDx=0;entryDy=0;" parent="WIyWlLk6GJQsqaUBKTNV-1" source="dJCcsN1a7NyHzebXsg9J-19" target="dJCcsN1a7NyHzebXsg9J-22" edge="1">
          <mxGeometry relative="1" as="geometry" />
        </mxCell>
        <mxCell id="dJCcsN1a7NyHzebXsg9J-19" value="validated input" style="rounded=1;whiteSpace=wrap;html=1;" parent="WIyWlLk6GJQsqaUBKTNV-1" vertex="1">
          <mxGeometry x="990" y="700" width="200" height="70" as="geometry" />
        </mxCell>
        <mxCell id="dJCcsN1a7NyHzebXsg9J-21" value="validate the marketplaceID" style="text;html=1;strokeColor=none;fillColor=none;align=center;verticalAlign=middle;whiteSpace=wrap;rounded=0;" parent="WIyWlLk6GJQsqaUBKTNV-1" vertex="1">
          <mxGeometry x="1090" y="670" width="170" height="20" as="geometry" />
        </mxCell>
        <mxCell id="dJCcsN1a7NyHzebXsg9J-27" style="edgeStyle=orthogonalEdgeStyle;rounded=0;orthogonalLoop=1;jettySize=auto;html=1;entryX=0.5;entryY=0;entryDx=0;entryDy=0;" parent="WIyWlLk6GJQsqaUBKTNV-1" source="dJCcsN1a7NyHzebXsg9J-22" target="dJCcsN1a7NyHzebXsg9J-25" edge="1">
          <mxGeometry relative="1" as="geometry" />
        </mxCell>
        <mxCell id="dJCcsN1a7NyHzebXsg9J-22" value="input with normalizedAdvertiserId" style="rounded=1;whiteSpace=wrap;html=1;" parent="WIyWlLk6GJQsqaUBKTNV-1" vertex="1">
          <mxGeometry x="990" y="810" width="200" height="60" as="geometry" />
        </mxCell>
        <mxCell id="dJCcsN1a7NyHzebXsg9J-24" value="getNormalizedAdvertiserId" style="text;html=1;strokeColor=none;fillColor=none;align=center;verticalAlign=middle;whiteSpace=wrap;rounded=0;" parent="WIyWlLk6GJQsqaUBKTNV-1" vertex="1">
          <mxGeometry x="1085" y="780" width="170" height="20" as="geometry" />
        </mxCell>
        <mxCell id="dJCcsN1a7NyHzebXsg9J-29" style="edgeStyle=orthogonalEdgeStyle;rounded=0;orthogonalLoop=1;jettySize=auto;html=1;entryX=0.5;entryY=0;entryDx=0;entryDy=0;" parent="WIyWlLk6GJQsqaUBKTNV-1" source="dJCcsN1a7NyHzebXsg9J-25" target="dJCcsN1a7NyHzebXsg9J-28" edge="1">
          <mxGeometry relative="1" as="geometry" />
        </mxCell>
        <mxCell id="dJCcsN1a7NyHzebXsg9J-25" value="inputItems" style="rounded=1;whiteSpace=wrap;html=1;" parent="WIyWlLk6GJQsqaUBKTNV-1" vertex="1">
          <mxGeometry x="975" y="920" width="230" height="90" as="geometry" />
        </mxCell>
        <mxCell id="dJCcsN1a7NyHzebXsg9J-26" value="getCloneEntitiesItem" style="text;html=1;strokeColor=none;fillColor=none;align=center;verticalAlign=middle;whiteSpace=wrap;rounded=0;" parent="WIyWlLk6GJQsqaUBKTNV-1" vertex="1">
          <mxGeometry x="1095" y="890" width="170" height="20" as="geometry" />
        </mxCell>
        <mxCell id="dJCcsN1a7NyHzebXsg9J-30" style="edgeStyle=orthogonalEdgeStyle;rounded=0;orthogonalLoop=1;jettySize=auto;html=1;exitX=1;exitY=0.5;exitDx=0;exitDy=0;entryX=0;entryY=0.5;entryDx=0;entryDy=0;" parent="WIyWlLk6GJQsqaUBKTNV-1" source="dJCcsN1a7NyHzebXsg9J-28" edge="1" target="dJCcsN1a7NyHzebXsg9J-42">
          <mxGeometry relative="1" as="geometry">
            <mxPoint x="1330" y="1130" as="targetPoint" />
          </mxGeometry>
        </mxCell>
        <mxCell id="dJCcsN1a7NyHzebXsg9J-41" style="edgeStyle=orthogonalEdgeStyle;rounded=0;orthogonalLoop=1;jettySize=auto;html=1;entryX=0.5;entryY=0;entryDx=0;entryDy=0;" parent="WIyWlLk6GJQsqaUBKTNV-1" source="dJCcsN1a7NyHzebXsg9J-28" target="dJCcsN1a7NyHzebXsg9J-40" edge="1">
          <mxGeometry relative="1" as="geometry" />
        </mxCell>
        <mxCell id="dJCcsN1a7NyHzebXsg9J-28" value="inputItem.size() &amp;gt; UPDATE_BATCH_SIZE?" style="rhombus;whiteSpace=wrap;html=1;" parent="WIyWlLk6GJQsqaUBKTNV-1" vertex="1">
          <mxGeometry x="967.5" y="1030" width="245" height="100" as="geometry" />
        </mxCell>
        <mxCell id="dJCcsN1a7NyHzebXsg9J-31" value="no" style="text;html=1;strokeColor=none;fillColor=none;align=center;verticalAlign=middle;whiteSpace=wrap;rounded=0;" parent="WIyWlLk6GJQsqaUBKTNV-1" vertex="1">
          <mxGeometry x="1072" y="1120" width="97.5" height="20" as="geometry" />
        </mxCell>
        <mxCell id="dJCcsN1a7NyHzebXsg9J-32" value="yes" style="text;html=1;strokeColor=none;fillColor=none;align=center;verticalAlign=middle;whiteSpace=wrap;rounded=0;" parent="WIyWlLk6GJQsqaUBKTNV-1" vertex="1">
          <mxGeometry x="1212.5" y="1040" width="90" as="geometry" />
        </mxCell>
        <mxCell id="dJCcsN1a7NyHzebXsg9J-48" style="edgeStyle=orthogonalEdgeStyle;rounded=0;orthogonalLoop=1;jettySize=auto;html=1;entryX=0.5;entryY=0;entryDx=0;entryDy=0;" parent="WIyWlLk6GJQsqaUBKTNV-1" source="dJCcsN1a7NyHzebXsg9J-40" target="dJCcsN1a7NyHzebXsg9J-43" edge="1">
          <mxGeometry relative="1" as="geometry" />
        </mxCell>
        <mxCell id="dJCcsN1a7NyHzebXsg9J-40" value="create sanitizedEntities (Type with Campaign and Status with enabled, paused and draft)" style="rounded=1;whiteSpace=wrap;html=1;" parent="WIyWlLk6GJQsqaUBKTNV-1" vertex="1">
          <mxGeometry x="985" y="1150" width="210" height="110" as="geometry" />
        </mxCell>
        <mxCell id="dJCcsN1a7NyHzebXsg9J-42" value="set context with error code &quot;CLONE_ENTITIES_BATCH_SIZE_EXCEEDS&quot;,throw the exception." style="rounded=1;whiteSpace=wrap;html=1;" parent="WIyWlLk6GJQsqaUBKTNV-1" vertex="1">
          <mxGeometry x="1320" y="1030" width="300" height="100" as="geometry" />
        </mxCell>
        <mxCell id="dJCcsN1a7NyHzebXsg9J-51" style="edgeStyle=orthogonalEdgeStyle;rounded=0;orthogonalLoop=1;jettySize=auto;html=1;entryX=0.5;entryY=0;entryDx=0;entryDy=0;" parent="WIyWlLk6GJQsqaUBKTNV-1" source="dJCcsN1a7NyHzebXsg9J-43" target="dJCcsN1a7NyHzebXsg9J-50" edge="1">
          <mxGeometry relative="1" as="geometry" />
        </mxCell>
        <mxCell id="dJCcsN1a7NyHzebXsg9J-79" style="edgeStyle=orthogonalEdgeStyle;rounded=0;orthogonalLoop=1;jettySize=auto;html=1;entryX=0.992;entryY=0.571;entryDx=0;entryDy=0;entryPerimeter=0;exitX=1;exitY=0.5;exitDx=0;exitDy=0;" parent="WIyWlLk6GJQsqaUBKTNV-1" source="dJCcsN1a7NyHzebXsg9J-43" target="dJCcsN1a7NyHzebXsg9J-74" edge="1">
          <mxGeometry relative="1" as="geometry">
            <Array as="points">
              <mxPoint x="1770" y="1320" />
              <mxPoint x="1770" y="2104" />
            </Array>
          </mxGeometry>
        </mxCell>
        <mxCell id="dJCcsN1a7NyHzebXsg9J-43" value="santizedEntities is Empty?" style="rhombus;whiteSpace=wrap;html=1;" parent="WIyWlLk6GJQsqaUBKTNV-1" vertex="1">
          <mxGeometry x="985" y="1280" width="210" height="80" as="geometry" />
        </mxCell>
        <mxCell id="dJCcsN1a7NyHzebXsg9J-46" value="yes" style="text;html=1;strokeColor=none;fillColor=none;align=center;verticalAlign=middle;whiteSpace=wrap;rounded=0;" parent="WIyWlLk6GJQsqaUBKTNV-1" vertex="1">
          <mxGeometry x="1390" y="1290" width="90" height="20" as="geometry" />
        </mxCell>
        <mxCell id="dJCcsN1a7NyHzebXsg9J-49" value="no" style="text;html=1;strokeColor=none;fillColor=none;align=center;verticalAlign=middle;whiteSpace=wrap;rounded=0;" parent="WIyWlLk6GJQsqaUBKTNV-1" vertex="1">
          <mxGeometry x="1079" y="1370" width="90" height="20" as="geometry" />
        </mxCell>
        <mxCell id="dJCcsN1a7NyHzebXsg9J-54" style="edgeStyle=orthogonalEdgeStyle;rounded=0;orthogonalLoop=1;jettySize=auto;html=1;entryX=0.5;entryY=0;entryDx=0;entryDy=0;" parent="WIyWlLk6GJQsqaUBKTNV-1" source="dJCcsN1a7NyHzebXsg9J-50" target="dJCcsN1a7NyHzebXsg9J-53" edge="1">
          <mxGeometry relative="1" as="geometry" />
        </mxCell>
        <mxCell id="dJCcsN1a7NyHzebXsg9J-50" value="get current live campaigns according to Jdbc filter" style="rounded=1;whiteSpace=wrap;html=1;" parent="WIyWlLk6GJQsqaUBKTNV-1" vertex="1">
          <mxGeometry x="995" y="1400" width="190" height="70" as="geometry" />
        </mxCell>
        <mxCell id="dJCcsN1a7NyHzebXsg9J-57" style="edgeStyle=orthogonalEdgeStyle;rounded=0;orthogonalLoop=1;jettySize=auto;html=1;exitX=1;exitY=0.5;exitDx=0;exitDy=0;entryX=0;entryY=0.5;entryDx=0;entryDy=0;" parent="WIyWlLk6GJQsqaUBKTNV-1" source="dJCcsN1a7NyHzebXsg9J-53" target="dJCcsN1a7NyHzebXsg9J-56" edge="1">
          <mxGeometry relative="1" as="geometry" />
        </mxCell>
        <mxCell id="dJCcsN1a7NyHzebXsg9J-60" style="edgeStyle=orthogonalEdgeStyle;rounded=0;orthogonalLoop=1;jettySize=auto;html=1;exitX=0.5;exitY=1;exitDx=0;exitDy=0;entryX=0.5;entryY=0;entryDx=0;entryDy=0;" parent="WIyWlLk6GJQsqaUBKTNV-1" source="dJCcsN1a7NyHzebXsg9J-53" target="dJCcsN1a7NyHzebXsg9J-61" edge="1">
          <mxGeometry relative="1" as="geometry">
            <mxPoint x="1090" y="1860" as="targetPoint" />
          </mxGeometry>
        </mxCell>
        <mxCell id="dJCcsN1a7NyHzebXsg9J-53" value="sourceEntity of inputItems in sanitisedEntities can be found in current live campaigns?" style="rhombus;whiteSpace=wrap;html=1;" parent="WIyWlLk6GJQsqaUBKTNV-1" vertex="1">
          <mxGeometry x="947.5" y="1500" width="285" height="130" as="geometry" />
        </mxCell>
        <mxCell id="dJCcsN1a7NyHzebXsg9J-55" value="no" style="text;html=1;strokeColor=none;fillColor=none;align=center;verticalAlign=middle;whiteSpace=wrap;rounded=0;" parent="WIyWlLk6GJQsqaUBKTNV-1" vertex="1">
          <mxGeometry x="1340" y="1535" width="90" height="20" as="geometry" />
        </mxCell>
        <mxCell id="dJCcsN1a7NyHzebXsg9J-80" style="edgeStyle=orthogonalEdgeStyle;rounded=0;orthogonalLoop=1;jettySize=auto;html=1;entryX=1;entryY=0.5;entryDx=0;entryDy=0;exitX=0.5;exitY=1;exitDx=0;exitDy=0;" parent="WIyWlLk6GJQsqaUBKTNV-1" source="dJCcsN1a7NyHzebXsg9J-56" target="dJCcsN1a7NyHzebXsg9J-72" edge="1">
          <mxGeometry relative="1" as="geometry">
            <Array as="points">
              <mxPoint x="1660" y="1970" />
              <mxPoint x="1150" y="1970" />
            </Array>
          </mxGeometry>
        </mxCell>
        <mxCell id="dJCcsN1a7NyHzebXsg9J-56" value="build error code in cloneEntity results" style="rounded=1;whiteSpace=wrap;html=1;" parent="WIyWlLk6GJQsqaUBKTNV-1" vertex="1">
          <mxGeometry x="1590" y="1535" width="140" height="60" as="geometry" />
        </mxCell>
        <mxCell id="dJCcsN1a7NyHzebXsg9J-58" value="yes" style="text;html=1;strokeColor=none;fillColor=none;align=center;verticalAlign=middle;whiteSpace=wrap;rounded=0;" parent="WIyWlLk6GJQsqaUBKTNV-1" vertex="1">
          <mxGeometry x="1090" y="1650" width="90" height="20" as="geometry" />
        </mxCell>
        <mxCell id="dJCcsN1a7NyHzebXsg9J-67" style="edgeStyle=orthogonalEdgeStyle;rounded=0;orthogonalLoop=1;jettySize=auto;html=1;" parent="WIyWlLk6GJQsqaUBKTNV-1" source="dJCcsN1a7NyHzebXsg9J-61" target="dJCcsN1a7NyHzebXsg9J-66" edge="1">
          <mxGeometry relative="1" as="geometry" />
        </mxCell>
        <mxCell id="dJCcsN1a7NyHzebXsg9J-69" style="edgeStyle=orthogonalEdgeStyle;rounded=0;orthogonalLoop=1;jettySize=auto;html=1;exitX=0.5;exitY=1;exitDx=0;exitDy=0;entryX=0.5;entryY=0;entryDx=0;entryDy=0;" parent="WIyWlLk6GJQsqaUBKTNV-1" source="dJCcsN1a7NyHzebXsg9J-61" target="dJCcsN1a7NyHzebXsg9J-65" edge="1">
          <mxGeometry relative="1" as="geometry" />
        </mxCell>
        <mxCell id="dJCcsN1a7NyHzebXsg9J-61" value="Is the status of inputItem Draft?" style="rhombus;whiteSpace=wrap;html=1;" parent="WIyWlLk6GJQsqaUBKTNV-1" vertex="1">
          <mxGeometry x="985" y="1690" width="210" height="80" as="geometry" />
        </mxCell>
        <mxCell id="dJCcsN1a7NyHzebXsg9J-62" value="yes" style="text;html=1;strokeColor=none;fillColor=none;align=center;verticalAlign=middle;whiteSpace=wrap;rounded=0;" parent="WIyWlLk6GJQsqaUBKTNV-1" vertex="1">
          <mxGeometry x="1195" y="1700" width="90" height="20" as="geometry" />
        </mxCell>
        <mxCell id="dJCcsN1a7NyHzebXsg9J-63" value="no" style="text;html=1;strokeColor=none;fillColor=none;align=center;verticalAlign=middle;whiteSpace=wrap;rounded=0;" parent="WIyWlLk6GJQsqaUBKTNV-1" vertex="1">
          <mxGeometry x="1072" y="1780" width="90" height="20" as="geometry" />
        </mxCell>
        <mxCell id="dJCcsN1a7NyHzebXsg9J-73" style="edgeStyle=orthogonalEdgeStyle;rounded=0;orthogonalLoop=1;jettySize=auto;html=1;entryX=0.5;entryY=0;entryDx=0;entryDy=0;" parent="WIyWlLk6GJQsqaUBKTNV-1" source="dJCcsN1a7NyHzebXsg9J-65" target="dJCcsN1a7NyHzebXsg9J-72" edge="1">
          <mxGeometry relative="1" as="geometry" />
        </mxCell>
        <mxCell id="dJCcsN1a7NyHzebXsg9J-65" value="clone live campaign&amp;nbsp;" style="rounded=1;whiteSpace=wrap;html=1;" parent="WIyWlLk6GJQsqaUBKTNV-1" vertex="1">
          <mxGeometry x="1030" y="1810" width="120" height="60" as="geometry" />
        </mxCell>
        <mxCell id="dJCcsN1a7NyHzebXsg9J-85" style="edgeStyle=orthogonalEdgeStyle;rounded=0;orthogonalLoop=1;jettySize=auto;html=1;entryX=0.5;entryY=0;entryDx=0;entryDy=0;" parent="WIyWlLk6GJQsqaUBKTNV-1" source="dJCcsN1a7NyHzebXsg9J-66" target="dJCcsN1a7NyHzebXsg9J-84" edge="1">
          <mxGeometry relative="1" as="geometry" />
        </mxCell>
        <mxCell id="dJCcsN1a7NyHzebXsg9J-66" value="create a draftCampaign, set the according attribute, put the new draftCampaign in a HashMap" style="rounded=1;whiteSpace=wrap;html=1;" parent="WIyWlLk6GJQsqaUBKTNV-1" vertex="1">
          <mxGeometry x="1295" y="1695" width="210" height="70" as="geometry" />
        </mxCell>
        <mxCell id="dJCcsN1a7NyHzebXsg9J-75" style="edgeStyle=orthogonalEdgeStyle;rounded=0;orthogonalLoop=1;jettySize=auto;html=1;entryX=0.5;entryY=0;entryDx=0;entryDy=0;" parent="WIyWlLk6GJQsqaUBKTNV-1" source="dJCcsN1a7NyHzebXsg9J-72" target="dJCcsN1a7NyHzebXsg9J-74" edge="1">
          <mxGeometry relative="1" as="geometry" />
        </mxCell>
        <mxCell id="dJCcsN1a7NyHzebXsg9J-72" value="cloneEntityResults" style="rounded=1;whiteSpace=wrap;html=1;" parent="WIyWlLk6GJQsqaUBKTNV-1" vertex="1">
          <mxGeometry x="1030" y="1945" width="120" height="60" as="geometry" />
        </mxCell>
        <mxCell id="dJCcsN1a7NyHzebXsg9J-78" style="edgeStyle=orthogonalEdgeStyle;rounded=0;orthogonalLoop=1;jettySize=auto;html=1;entryX=0.5;entryY=0;entryDx=0;entryDy=0;" parent="WIyWlLk6GJQsqaUBKTNV-1" source="dJCcsN1a7NyHzebXsg9J-74" target="dJCcsN1a7NyHzebXsg9J-77" edge="1">
          <mxGeometry relative="1" as="geometry" />
        </mxCell>
        <mxCell id="dJCcsN1a7NyHzebXsg9J-74" value="response" style="rounded=1;whiteSpace=wrap;html=1;" parent="WIyWlLk6GJQsqaUBKTNV-1" vertex="1">
          <mxGeometry x="1030" y="2070" width="120" height="60" as="geometry" />
        </mxCell>
        <mxCell id="dJCcsN1a7NyHzebXsg9J-76" value="setResult" style="text;html=1;strokeColor=none;fillColor=none;align=center;verticalAlign=middle;whiteSpace=wrap;rounded=0;" parent="WIyWlLk6GJQsqaUBKTNV-1" vertex="1">
          <mxGeometry x="1095" y="2030" width="90" height="20" as="geometry" />
        </mxCell>
        <mxCell id="dJCcsN1a7NyHzebXsg9J-77" value="END" style="rounded=0;whiteSpace=wrap;html=1;" parent="WIyWlLk6GJQsqaUBKTNV-1" vertex="1">
          <mxGeometry x="1030" y="2160" width="120" height="60" as="geometry" />
        </mxCell>
        <mxCell id="dJCcsN1a7NyHzebXsg9J-83" style="edgeStyle=orthogonalEdgeStyle;rounded=0;orthogonalLoop=1;jettySize=auto;html=1;" parent="WIyWlLk6GJQsqaUBKTNV-1" source="dJCcsN1a7NyHzebXsg9J-81" edge="1">
          <mxGeometry relative="1" as="geometry">
            <mxPoint x="1400" y="1970" as="targetPoint" />
            <Array as="points">
              <mxPoint x="1400" y="1970" />
              <mxPoint x="1400" y="1970" />
            </Array>
          </mxGeometry>
        </mxCell>
        <mxCell id="dJCcsN1a7NyHzebXsg9J-81" value="clone new liveCampaign, set new outputEntity" style="rounded=1;whiteSpace=wrap;html=1;" parent="WIyWlLk6GJQsqaUBKTNV-1" vertex="1">
          <mxGeometry x="1295" y="1875" width="210" height="70" as="geometry" />
        </mxCell>
        <mxCell id="dJCcsN1a7NyHzebXsg9J-86" style="edgeStyle=orthogonalEdgeStyle;rounded=0;orthogonalLoop=1;jettySize=auto;html=1;entryX=0.5;entryY=0;entryDx=0;entryDy=0;" parent="WIyWlLk6GJQsqaUBKTNV-1" source="dJCcsN1a7NyHzebXsg9J-84" target="dJCcsN1a7NyHzebXsg9J-81" edge="1">
          <mxGeometry relative="1" as="geometry" />
        </mxCell>
        <mxCell id="dJCcsN1a7NyHzebXsg9J-90" style="edgeStyle=orthogonalEdgeStyle;rounded=0;orthogonalLoop=1;jettySize=auto;html=1;entryX=0;entryY=0.5;entryDx=0;entryDy=0;" parent="WIyWlLk6GJQsqaUBKTNV-1" source="dJCcsN1a7NyHzebXsg9J-84" target="dJCcsN1a7NyHzebXsg9J-89" edge="1">
          <mxGeometry relative="1" as="geometry" />
        </mxCell>
        <mxCell id="dJCcsN1a7NyHzebXsg9J-84" value="context has error?" style="rhombus;whiteSpace=wrap;html=1;" parent="WIyWlLk6GJQsqaUBKTNV-1" vertex="1">
          <mxGeometry x="1307.5" y="1800" width="185" height="50" as="geometry" />
        </mxCell>
        <mxCell id="dJCcsN1a7NyHzebXsg9J-87" value="no" style="text;html=1;strokeColor=none;fillColor=none;align=center;verticalAlign=middle;whiteSpace=wrap;rounded=0;" parent="WIyWlLk6GJQsqaUBKTNV-1" vertex="1">
          <mxGeometry x="1380" y="1855" width="90" height="20" as="geometry" />
        </mxCell>
        <mxCell id="dJCcsN1a7NyHzebXsg9J-88" value="yes" style="text;html=1;strokeColor=none;fillColor=none;align=center;verticalAlign=middle;whiteSpace=wrap;rounded=0;" parent="WIyWlLk6GJQsqaUBKTNV-1" vertex="1">
          <mxGeometry x="1460" y="1800" width="90" height="20" as="geometry" />
        </mxCell>
        <mxCell id="dJCcsN1a7NyHzebXsg9J-91" style="edgeStyle=orthogonalEdgeStyle;rounded=0;orthogonalLoop=1;jettySize=auto;html=1;" parent="WIyWlLk6GJQsqaUBKTNV-1" source="dJCcsN1a7NyHzebXsg9J-89" edge="1">
          <mxGeometry relative="1" as="geometry">
            <mxPoint x="1590" y="1970" as="targetPoint" />
            <Array as="points">
              <mxPoint x="1590" y="1970" />
              <mxPoint x="1590" y="1970" />
            </Array>
          </mxGeometry>
        </mxCell>
        <mxCell id="dJCcsN1a7NyHzebXsg9J-89" value="build errorDetail" style="rounded=1;whiteSpace=wrap;html=1;" parent="WIyWlLk6GJQsqaUBKTNV-1" vertex="1">
          <mxGeometry x="1530" y="1795" width="120" height="60" as="geometry" />
        </mxCell>
        <mxCell id="RIARzK3eIoj-L2MVTeqf-0" value="what we need to achieve after implementing the clonedFromCampaignId" style="rounded=0;whiteSpace=wrap;html=1;" vertex="1" parent="WIyWlLk6GJQsqaUBKTNV-1">
          <mxGeometry x="449" y="1070" width="292" height="60" as="geometry" />
        </mxCell>
        <mxCell id="RIARzK3eIoj-L2MVTeqf-4" style="edgeStyle=orthogonalEdgeStyle;rounded=0;orthogonalLoop=1;jettySize=auto;html=1;entryX=0.5;entryY=0;entryDx=0;entryDy=0;" edge="1" parent="WIyWlLk6GJQsqaUBKTNV-1" source="RIARzK3eIoj-L2MVTeqf-1" target="RIARzK3eIoj-L2MVTeqf-3">
          <mxGeometry relative="1" as="geometry" />
        </mxCell>
        <mxCell id="RIARzK3eIoj-L2MVTeqf-1" value="client call getCampaigns API in Axiom" style="rounded=1;whiteSpace=wrap;html=1;" vertex="1" parent="WIyWlLk6GJQsqaUBKTNV-1">
          <mxGeometry x="512.5" y="1150" width="165" height="60" as="geometry" />
        </mxCell>
        <mxCell id="RIARzK3eIoj-L2MVTeqf-6" style="edgeStyle=orthogonalEdgeStyle;rounded=0;orthogonalLoop=1;jettySize=auto;html=1;entryX=0.5;entryY=0;entryDx=0;entryDy=0;" edge="1" parent="WIyWlLk6GJQsqaUBKTNV-1" source="RIARzK3eIoj-L2MVTeqf-3" target="RIARzK3eIoj-L2MVTeqf-5">
          <mxGeometry relative="1" as="geometry" />
        </mxCell>
        <mxCell id="RIARzK3eIoj-L2MVTeqf-3" value="clonedFrom Id" style="rounded=1;whiteSpace=wrap;html=1;" vertex="1" parent="WIyWlLk6GJQsqaUBKTNV-1">
          <mxGeometry x="522.5" y="1250" width="145" height="70" as="geometry" />
        </mxCell>
        <mxCell id="RIARzK3eIoj-L2MVTeqf-5" value="campaignId and return rejectionReasons" style="rounded=1;whiteSpace=wrap;html=1;" vertex="1" parent="WIyWlLk6GJQsqaUBKTNV-1">
          <mxGeometry x="502.5" y="1370" width="185" height="80" as="geometry" />
        </mxCell>
        <mxCell id="RIARzK3eIoj-L2MVTeqf-7" value="&lt;meta charset=&quot;utf-8&quot;&gt;&lt;span style=&quot;color: rgb(51, 51, 51); font-family: &amp;quot;helvetica neue&amp;quot;, helvetica, arial, sans-serif; font-size: 14px; font-style: normal; font-weight: 400; letter-spacing: normal; text-align: left; text-indent: 0px; text-transform: none; word-spacing: 0px; background-color: rgb(255, 255, 255); display: inline; float: none;&quot;&gt;getContentsForCampaignId&lt;/span&gt;" style="text;whiteSpace=wrap;html=1;" vertex="1" parent="WIyWlLk6GJQsqaUBKTNV-1">
          <mxGeometry x="600" y="1330" width="200" height="30" as="geometry" />
        </mxCell>
      </root>
    </mxGraphModel>
  </diagram>
</mxfile>
